<?xml version="1.0" encoding="utf-8"?>
<!-- Generator: Adobe Illustrator 27.0.1, SVG Export Plug-In . SVG Version: 6.00 Build 0)  -->
<svg version="1.1" id="Layer_1" xmlns="http://www.w3.org/2000/svg" xmlns:xlink="http://www.w3.org/1999/xlink" x="0px" y="0px"
	 width="512px" height="512px" viewBox="0 0 512 512" style="enable-background:new 0 0 512 512;" xml:space="preserve">
<style type="text/css">
	.st0{fill:#FFFFFF;}
</style>
<path class="st0" d="M97.2,75L74.6,97.7l49.9,69.9c4.3,6,11.1,9.5,18.5,9.5h1.6c6,0,11.8,2.4,16.1,6.6l60.7,60.7l-59.3,60.2
	c-36.1-10.6-73.9,10-84.6,46.1c-1.8,6.2-2.8,12.7-2.8,19.2c0.1,37.6,30.6,68,68.1,67.9c37.6-0.1,68-30.6,67.9-68.1
	c0-6.5-0.9-12.9-2.8-19.1l60.2-59.3l22,22l-6.9,20.7c-2.7,8.1-0.6,17.1,5.5,23.2l74.2,74.2c8.8,8.9,23.1,8.9,32,0.1
	c0,0,0.1-0.1,0.1-0.1l36-36c8.9-8.8,8.9-23.1,0.1-32c0,0-0.1-0.1-0.1-0.1L356.6,289c-6.1-6.1-15.1-8.2-23.2-5.5l-20.7,6.9
	l-21.8-21.8l60.8-59.9c36.4,9.7,73.7-11.9,83.4-48.3c1.5-5.7,2.3-11.5,2.3-17.4c0-6.1-0.8-12-2.3-17.6L386.6,174l-39.9-8.3
	l-8.3-39.8L387,77.3c-36.3-9.8-73.6,11.8-83.4,48c-3.1,11.6-3.1,23.8,0,35.4l-59.9,60.7L183.3,161c-4.3-4.3-6.6-10-6.6-16v-1.6
	c0-7.3-3.5-14.2-9.5-18.5L97.2,75z M316,316.4c4.4-4.4,11.6-4.4,16,0c0,0,0,0,0,0l66.1,66.1c4.4,4.5,4.2,11.7-0.3,16
	c-4.4,4.2-11.4,4.2-15.8,0L316,332.5C311.6,328.1,311.6,320.9,316,316.4C316,316.4,316,316.4,316,316.4z M142.6,324.4l10.7,5.5
	l12,0.6l6.5,10.1l10.1,6.5l0.6,12l5.5,10.7l-5.5,10.7l-0.6,12l-10.1,6.5l-6.5,10.1l-12,0.6l-10.7,5.5l-10.7-5.5l-12-0.6l-6.5-10.1
	l-10.1-6.5l-0.6-12l-5.5-10.7l5.5-10.7l0.6-12l10.1-6.5l6.5-10.1l12-0.6L142.6,324.4z"/>
</svg>
